#!OML:ASF \\sashay\E\basketball\basketball\Project 1\Capture day 1\Session 1\Subject.ASF
:FULLY-SPECIFIED
:DEGREES
225
root -1.58086 13.9455 3.88746 171.2 -10.1103 -167.408
lowerback 14.2044 -1.14312 6.14243
upperback 4.84346 -1.76697 8.0773
thorax -2.68182 -1.49232 5.40221
lowerneck 1.88642 3.11236 -19.3909
upperneck 12.9412 2.60131 11.0831
head 3.08219 0.516537 6.66928
rclavicle -1.0138e-014 -1.22451e-013
rhumerus 42.7564 5.3209 -68.5897
rradius 88.6431
rwrist -35.763
rhand -28.6375 41.2121
rfingers 7.12502
rthumb -2.00161 11.2417
lclavicle -1.0138e-014 -1.22451e-013
lhumerus 69.2709 -5.94249 36.5764
lradius 70.8039
lwrist 51.4197
lhand -17.0581 27.6558
lfingers 7.12502
lthumb 9.17927 57.436
rfemur 2.70841 -20.6464 0.845777
rtibia 47.1784
rfoot -12.1793 -6.04182
rtoes -57.5662
lfemur -34.6433 32.993 -7.73191
ltibia 89.3728
lfoot -18.2628 -3.62163
ltoes -9.93935
226
root -1.58997 13.9949 3.78837 170.892 -12.1393 -167.463
lowerback 13.8115 -0.979706 5.86501
upperback 4.50964 -1.4604 7.87508
thorax -2.84892 -1.28073 5.27902
lowerneck 3.81184 2.38779 -18.1291
upperneck 12.0865 1.26775 10.8708
head 2.72388 -0.121089 6.35097
rclavicle 2.3059e-014 5.56597e-014
rhumerus 45.476 3.96369 -68.2622
rradius 87.5116
rwrist -35.4713
rhand -28.7939 41.3532
rfingers 7.12502
rthumb -2.15268 11.3844
lclavicle 2.3059e-014 5.56597e-014
lhumerus 71.0103 -4.48921 37.2242
lradius 69.5582
lwrist 51.3127
lhand -16.9124 26.9863
lfingers 7.12502
lthumb 9.31991 56.7603
rfemur 4.18911 -20.5472 0.505903
rtibia 46.8293
rfoot -9.79735 -6.80776
rtoes -58.4336
lfemur -34.0719 33.0072 -8.41968
ltibia 88.3953
lfoot -18.5211 -3.22483
ltoes -8.85912
227
root -1.60525 14.0613 3.68489 170.613 -14.1548 -167.711
lowerback 13.7104 -0.670568 4.89964
upperback 4.08138 -1.03431 8.00193
thorax -3.26509 -1.02666 5.9053
lowerneck 3.81924 2.25719 -20.2358
upperneck 13.2648 0.719961 12.8237
head 3.10387 -0.501341 7.37181
rclavicle -3.27995e-014 3.49861e-014
rhumerus 47.9952 2.92741 -68.0281
rradius 86.2418
rwrist -35.2167
rhand -28.9072 41.2792
rfingers 7.12502
rthumb -2.26208 11.3115
lclavicle -3.27995e-014 3.49861e-014
lhumerus 72.4405 -3.36168 38.6956
lradius 68.2151
lwrist 50.9874
lhand -16.6381 26.2331
lfingers 7.12502
lthumb 9.58453 55.9951
rfemur 5.53389 -20.0411 0.0902878
rtibia 46.5461
rfoot -7.95651 -6.10644
rtoes -58.4879
lfemur -33.1269 32.9159 -9.16031
ltibia 87.1485
lfoot -18.8512 -3.08374
ltoes -7.42531
228
root -1.62245 14.1231 3.57945 170.394 -16.124 -167.83
lowerback 13.4905 -0.3258 4.44026
upperback 3.66898 -0.490924 7.80872
thorax -3.62611 -0.696739 5.86924
lowerneck 4.5544 1.88889 -21.2286
upperneck 13.6088 -0.203166 14.3595
head 3.20877 -1.01359 8.06398
rclavicle -1.70955e-014 -2.94201e-014
rhumerus 49.9202 1.47666 -67.8271
rradius 85.3825
rwrist -35.5456
rhand -28.9118 41.0497
rfingers 7.12502
rthumb -2.26657 11.082
lclavicle -1.70955e-014 -2.94201e-014
lhumerus 74.1255 -2.72926 39.7774
lradius 67.1395
lwrist 50.9109
lhand -16.4466 25.6641
lfingers 7.12502
lthumb 9.76934 55.4175
rfemur 6.6161 -19.59 -0.142988
rtibia 46.4093
rfoot -6.04358 -5.20903
rtoes -58.4526
lfemur -32.108 32.6294 -9.64726
ltibia 85.8003
lfoot -19.165 -3.18864
ltoes -6.08963
229
root -1.64988 14.1948 3.46785 170.278 -18.0586 -167.967
lowerback 13.1091 -0.0152969 4.05441
upperback 3.23556 -0.00156559 7.55288
thorax -3.91798 -0.393151 5.7272
lowerneck 6.8655 0.809801 -19.8773
upperneck 12.4436 -2.0874 14.4399
head 2.80888 -1.93674 7.83293
rclavicle -7.95139e-015 -5.80451e-014
rhumerus 51.4406 0.308509 -67.4907
rradius 84.7816
rwrist -35.9557
rhand -28.5388 40.9487
rfingers 7.12502
rthumb -1.90627 10.9775
lclavicle -7.95139e-015 -5.80451e-014
lhumerus 75.4094 -2.23734 40.7664
lradius 66.4129
lwrist 50.9072
lhand -16.4428 25.4691
lfingers 7.12502
lthumb 9.77293 55.2223
rfemur 7.30996 -17.6113 0.63881
rtibia 46.3654
rfoot -3.38018 -5.65276
rtoes -58.5364
lfemur -30.8886 32.0559 -10.0047
ltibia 84.222
lfoot -19.5111 -3.73026
ltoes -3.98714
230
root -1.67493 14.2509 3.35899 170.249 -20.0175 -168.346
lowerback 12.7102 0.282936 3.48069
upperback 2.95032 0.427253 7.09188
thorax -4.03857 -0.116793 5.47764
lowerneck 7.98212 0.2023 -20.1381
upperneck 12.105 -3.32552 15.9971
head 2.74016 -2.57711 8.41214
rclavicle 7.55382e-015 -7.07673e-014
rhumerus 52.8538 -0.754128 -67.4503
rradius 84.3824
rwrist -36.1582
rhand -27.502 40.5008
rfingers 7.12502
rthumb -0.904932 10.5229
lclavicle 7.55382e-015 -7.07673e-014
lhumerus 76.6391 -1.71349 41.534
lradius 65.9445
lwrist 50.8414
lhand -16.2751 25.2139
lfingers 7.12502
lthumb 9.93478 54.9595
rfemur 7.98737 -16.4955 0.636363
rtibia 46.5125
rfoot -0.97733 -4.85554
rtoes -58.455
lfemur -29.6338 31.2155 -10.4858
ltibia 82.6221
lfoot -20.0914 -4.50803
ltoes -3.8292
231
root -1.70145 14.3161 3.2492 170.129 -21.958 -168.405
lowerback 12.3563 0.595347 3.38861
upperback 2.71875 0.916475 6.48385
thorax -4.11682 0.177567 4.79023
lowerneck 7.73608 0.0868697 -21.0307
upperneck 12.9692 -3.84125 17.8888
head 3.13679 -2.86996 9.24387
rclavicle 2.8625e-014 -4.77083e-015
rhumerus 53.8412 -2.07744 -67.5071
rradius 84.2096
rwrist -36.3401
rhand -26.7845 40.0157
rfingers 7.12502
rthumb -0.211976 10.0361
lclavicle 2.8625e-014 -4.77083e-015
lhumerus 77.9522 -1.46924 42.1077
lradius 65.7082
lwrist 50.6539
lhand -16.056 24.7162
lfingers 7.12502
lthumb 10.1461 54.4515
rfemur 8.49658 -15.1013 1.29631
rtibia 46.7792
rfoot 1.52796 -4.19911
rtoes -57.9125
lfemur -28.2689 30.1627 -10.5051
ltibia 80.9359
lfoot -20.6666 -5.42079
ltoes -6.66575
232
root -1.73192 14.3815 3.13214 169.841 -23.857 -167.894
lowerback 11.9364 0.838415 3.80749
upperback 2.44474 1.34579 6.00198
thorax -4.17761 0.420748 3.96669
lowerneck 9.15048 -0.383051 -21.4467
upperneck 11.9769 -4.92699 19.873
head 2.84728 -3.45104 10.0309
rclavicle 1.7344e-014 -3.06128e-014
rhumerus 54.5241 -3.29881 -67.3595
rradius 84.1278
rwrist -36.5454
rhand -26.8384 40.0388
rfingers 7.12502
rthumb -0.264033 10.0592
lclavicle 1.7344e-014 -3.06128e-014
lhumerus 78.8051 -1.29181 42.5327
lradius 65.8441
lwrist 50.3484
lhand -16.3711 24.5836
lfingers 7.12502
lthumb 9.84214 54.3336
rfemur 8.71933 -13.2627 2.9208
rtibia 47.2762
rfoot 3.88571 -4.39777
rtoes -56.8685
lfemur -26.9385 28.848 -9.8441
ltibia 79.2899
lfoot -20.9188 -6.78451
ltoes -7.98497
233
root -1.77258 14.4408 3.01256 169.589 -25.7982 -167.339
lowerback 11.4331 0.968073 4.06863
upperback 2.15415 1.58141 5.73703
thorax -4.20053 0.558889 3.50154
lowerneck 10.4114 -0.962337 -21.588
upperneck 11.2107 -6.04489 20.9581
head 2.67485 -4.06271 10.4586
rclavicle -8.33902e-014 1.19271e-015
rhumerus 55.2511 -3.92909 -67
rradius 84.0595
rwrist -36.5796
rhand -26.7975 39.9064
rfingers 7.12502
rthumb -0.224534 9.92681
lclavicle -8.33902e-014 1.19271e-015
lhumerus 79.0162 -0.834814 43.1125
lradius 66.2693
lwrist 50.2318
lhand -16.8645 24.7208
lfingers 7.12502
lthumb 9.36605 54.4927
rfemur 8.7121 -11.6255 4.50404
rtibia 48.0384
rfoot 5.93045 -4.53052
rtoes -55.5691
lfemur -25.7493 27.3614 -9.1989
ltibia 77.704
lfoot -21.183 -8.42499
ltoes -6.70364
234
root -1.81413 14.497 2.89949 169.364 -27.828 -166.851
lowerback 11.0221 0.973618 4.02516
upperback 1.85898 1.61203 5.65928
thorax -4.28407 0.59176 3.44083
lowerneck 11.0167 -1.28674 -21.7657
upperneck 11.0843 -6.69251 21.4044
head 2.69688 -4.42568 10.6621
rclavicle -1.87852e-014 -2.48481e-014
rhumerus 56.0242 -3.73851 -66.4667
rradius 83.9536
rwrist -36.4213
rhand -26.4176 39.3592
rfingers 7.12502
rthumb 0.142387 9.37946
lclavicle -1.87852e-014 -2.48481e-014
lhumerus 78.9135 -0.317107 44.3327
lradius 66.4161
lwrist 50.1049
lhand -16.8385 24.5415
lfingers 7.12502
lthumb 9.39117 54.3123
rfemur 8.4365 -10.2765 5.99306
rtibia 49.1589
rfoot 7.87888 -3.86453
rtoes -54.4538
lfemur -24.737 25.8458 -8.71387
ltibia 76.202
lfoot -21.4843 -9.76789
ltoes -7.55636
235
root -1.84296 14.5502 2.79223 169.092 -30.0183 -166.37
lowerback 10.7445 0.841491 3.85714
upperback 1.64228 1.4452 5.48483
thorax -4.35297 0.528469 3.37565
lowerneck 11.4966 -1.62272 -22.3014
upperneck 10.988 -7.42615 22.2699
head 2.79379 -4.84201 11.0876
rclavicle -1.52319e-014 -6.85807e-014
rhumerus 56.884 -3.1244 -66.2481
rradius 83.7835
rwrist -36.2329
rhand -26.0725 39.1007
rfingers 7.12502
rthumb 0.475748 9.12151
lclavicle -1.52319e-014 -6.85807e-014
lhumerus 78.7614 0.101798 45.7759
lradius 66.3888
lwrist 49.7909
lhand -16.3736 24.3617
lfingers 7.12502
lthumb 9.83972 54.1118
rfemur 7.85889 -8.93442 7.70776
rtibia 50.6819
rfoot 9.67592 -3.72554
rtoes -52.6756
lfemur -23.9816 24.2295 -8.32228
ltibia 74.7978
lfoot -21.461 -10.9087
ltoes -10.1582
236
root -1.86744 14.6048 2.68135 168.96 -32.2078 -166.178
lowerback 10.5048 0.728928 3.35748
upperback 1.49944 1.26858 5.15327
thorax -4.36887 0.469852 3.33121
lowerneck 11.8789 -2.04873 -21.9882
upperneck 10.6767 -8.07275 22.693
head 2.79225 -5.16967 11.1825
rclavicle 4.73449e-014 -5.79457e-014
rhumerus 57.6148 -2.61265 -66.0438
rradius 83.7136
rwrist -36.1956
rhand -25.6885 39.1218
rfingers 7.12502
rthumb 0.846632 9.14375
lclavicle 4.73449e-014 -5.79457e-014
lhumerus 78.1584 0.539851 46.9949
lradius 67.0478
lwrist 49.6473
lhand -15.8673 24.2097
lfingers 7.12502
lthumb 10.3281 53.9361
rfemur 7.00402 -7.90813 9.09853
rtibia 52.5714
rfoot 10.725 -4.39189
rtoes -50.4843
lfemur -23.3904 22.7035 -8.22514
ltibia 73.4677
lfoot -21.1517 -12.3241
ltoes -9.39598
237
root -1.8972 14.6602 2.56427 169.168 -34.2603 -166.476
lowerback 10.2562 0.73999 2.34173
upperback 1.29604 1.20985 4.84643
thorax -4.45835 0.480926 3.58904
lowerneck 12.3459 -2.38142 -22.3686
upperneck 10.2449 -8.69841 23.5363
head 2.78136 -5.51824 11.5722
rclavicle 1.75831e-014 3.03644e-014
rhumerus 57.9443 -2.08688 -65.2374
rradius 83.8354
rwrist -36.2254
rhand -25.645 39.231
rfingers 7.12502
rthumb 0.888587 9.25314
lclavicle 1.75831e-014 3.03644e-014
lhumerus 77.2049 0.770444 48.2798
lradius 68.0317
lwrist 49.3193
lhand -15.6916 23.9739
lfingers 7.12502
lthumb 10.4977 53.6917
rfemur 5.89744 -7.1817 9.86422
rtibia 54.7336
rfoot 10.3103 -5.38075
rtoes -48.5321
lfemur -22.8279 21.5299 -8.57586
ltibia 72.1865
lfoot -20.7494 -13.6798
ltoes -6.55795
